<?xml version="1.0" encoding="utf-8"?>
<!-- Svg Vector Icons : http://www.onlinewebfonts.com/icon -->
<svg version="1.1" xmlns="http://www.w3.org/2000/svg" xmlns:xlink="http://www.w3.org/1999/xlink" x="0px" y="0px" viewBox="0 0 256 256" enable-background="new 0 0 256 256" xml:space="preserve">
<metadata> Svg Vector Icons : http://www.onlinewebfonts.com/icon </metadata>
<g><g><path fill="#fff" d="M246,173.9V80.1v0c0-10.8-8.7-19.6-19.5-19.7l0,0H29.8c0,0,0,0-0.1,0c0,0,0,0-0.1,0h-0.2l0,0C18.7,60.5,10,69.2,10,80l0,0v96l0,0c0,10.8,8.7,19.6,19.5,19.7l0,0h0.1c0,0,0,0,0.1,0c0,0,0,0,0.1,0h196.4c0,0,0.1,0,0.1,0c10.9,0,19.7-8.8,19.7-19.7C246,175.3,246,174.6,246,173.9z M78,101.4c-5.2-2.9-10.9-4.3-17.1-4.3c-8.1,0-14.7,2.7-19.8,8.1c-5.1,5.4-7.7,12.7-7.7,21.9c0,8.7,2.4,15.6,7.2,20.7c4.8,5.1,11,7.7,18.7,7.7c7.2,0,13.5-1.6,18.8-4.9v9c-5.3,2.8-12.1,4.2-20.2,4.2c-10.4,0-18.8-3.3-25-9.9c-6.3-6.6-9.4-15.4-9.4-26.3c0-11.7,3.5-21.1,10.5-28.3c7-7.2,15.9-10.7,26.7-10.7c7,0,12.7,1,17.2,3V101.4L78,101.4z M167.7,162.6h-9.3v-48.2c0-4,0.2-8.8,0.7-14.3h-0.2c-0.8,3.5-1.5,5.9-2.2,7.3l-24,55.2h-5.2l-24-54.8c-0.6-1.3-1.3-3.8-2.2-7.8H101c0.3,3.4,0.5,8.3,0.5,14.8v47.8h-9V89.8h12.7l21.5,49.9c1.6,3.8,2.7,6.8,3.3,8.9h0.3c1.6-4.5,2.8-7.5,3.4-9.1l21.8-49.7h12.1V162.6L167.7,162.6z M220.9,158.7c-4.6,3.4-11.1,5.1-19.3,5.1c-2.9,0-6.2-0.4-10.1-1.2c-3.8-0.8-6.6-1.8-8.4-3v-10.7c2.2,2,5.2,3.5,8.9,4.8c3.7,1.3,7.3,1.9,10.6,1.9c10.2,0,15.3-3.6,15.3-10.9c0-2-0.6-3.9-1.6-5.5c-1.1-1.6-2.6-3.1-4.5-4.3c-1.9-1.3-5.5-3.2-10.8-5.8c-7.3-3.6-12.1-7-14.4-10.1c-2.3-3.1-3.5-6.7-3.5-10.7c0-6,2.4-10.8,7.3-14.4c4.9-3.5,11-5.3,18.4-5.3c7.2,0,12.5,0.9,15.9,2.6v10.2c-4.4-3-9.9-4.6-16.6-4.6c-4.5,0-8.1,0.9-10.9,2.8c-2.8,1.9-4.2,4.5-4.2,7.8c0,2.9,1,5.3,2.9,7.2c2,1.9,6.2,4.4,12.6,7.6c7.2,3.4,12.1,6.8,15,10.2c2.8,3.4,4.3,7.2,4.3,11.5C227.9,150.4,225.6,155.3,220.9,158.7z"/></g></g>
</svg>